<svg width="187" height="42" viewBox="0 0 187 42" fill="none" xmlns="http://www.w3.org/2000/svg">
<path d="M51.056 27.112C50.2347 27.112 49.4987 26.9787 48.848 26.712C48.1973 26.4453 47.6747 26.0507 47.28 25.528C46.896 25.0053 46.6933 24.376 46.672 23.64H49.584C49.6267 24.056 49.7707 24.376 50.016 24.6C50.2613 24.8133 50.5813 24.92 50.976 24.92C51.3813 24.92 51.7013 24.8293 51.936 24.648C52.1707 24.456 52.288 24.1947 52.288 23.864C52.288 23.5867 52.192 23.3573 52 23.176C51.8187 22.9947 51.5893 22.8453 51.312 22.728C51.0453 22.6107 50.6613 22.4773 50.16 22.328C49.4347 22.104 48.8427 21.88 48.384 21.656C47.9253 21.432 47.5307 21.1013 47.2 20.664C46.8693 20.2267 46.704 19.656 46.704 18.952C46.704 17.9067 47.0827 17.0907 47.84 16.504C48.5973 15.9067 49.584 15.608 50.8 15.608C52.0373 15.608 53.0347 15.9067 53.792 16.504C54.5493 17.0907 54.9547 17.912 55.008 18.968H52.048C52.0267 18.6053 51.8933 18.3227 51.648 18.12C51.4027 17.9067 51.088 17.8 50.704 17.8C50.3733 17.8 50.1067 17.8907 49.904 18.072C49.7013 18.2427 49.6 18.4933 49.6 18.824C49.6 19.1867 49.7707 19.4693 50.112 19.672C50.4533 19.8747 50.9867 20.0933 51.712 20.328C52.4373 20.5733 53.024 20.808 53.472 21.032C53.9307 21.256 54.3253 21.5813 54.656 22.008C54.9867 22.4347 55.152 22.984 55.152 23.656C55.152 24.296 54.9867 24.8773 54.656 25.4C54.336 25.9227 53.8667 26.3387 53.248 26.648C52.6293 26.9573 51.8987 27.112 51.056 27.112ZM61.8118 24.68V27H60.4198C59.4278 27 58.6544 26.76 58.0998 26.28C57.5451 25.7893 57.2678 24.9947 57.2678 23.896V20.344H56.1798V18.072H57.2678V15.896H60.0038V18.072H61.7958V20.344H60.0038V23.928C60.0038 24.1947 60.0678 24.3867 60.1958 24.504C60.3238 24.6213 60.5371 24.68 60.8358 24.68H61.8118ZM62.7918 22.52C62.7918 21.6027 62.9624 20.7973 63.3038 20.104C63.6558 19.4107 64.1304 18.8773 64.7278 18.504C65.3251 18.1307 65.9918 17.944 66.7278 17.944C67.3571 17.944 67.9064 18.072 68.3758 18.328C68.8558 18.584 69.2238 18.92 69.4798 19.336V18.072H72.2158V27H69.4798V25.736C69.2131 26.152 68.8398 26.488 68.3598 26.744C67.8904 27 67.3411 27.128 66.7118 27.128C65.9864 27.128 65.3251 26.9413 64.7278 26.568C64.1304 26.184 63.6558 25.6453 63.3038 24.952C62.9624 24.248 62.7918 23.4373 62.7918 22.52ZM69.4798 22.536C69.4798 21.8533 69.2878 21.3147 68.9038 20.92C68.5304 20.5253 68.0718 20.328 67.5278 20.328C66.9838 20.328 66.5198 20.5253 66.1358 20.92C65.7624 21.304 65.5758 21.8373 65.5758 22.52C65.5758 23.2027 65.7624 23.7467 66.1358 24.152C66.5198 24.5467 66.9838 24.744 67.5278 24.744C68.0718 24.744 68.5304 24.5467 68.9038 24.152C69.2878 23.7573 69.4798 23.2187 69.4798 22.536ZM73.6511 22.536C73.6511 21.608 73.8378 20.7973 74.2111 20.104C74.5951 19.4107 75.1231 18.8773 75.7951 18.504C76.4778 18.1307 77.2565 17.944 78.1311 17.944C79.2511 17.944 80.1845 18.2373 80.9311 18.824C81.6885 19.4107 82.1845 20.2373 82.4191 21.304H79.5071C79.2618 20.6213 78.7871 20.28 78.0831 20.28C77.5818 20.28 77.1818 20.4773 76.8831 20.872C76.5845 21.256 76.4351 21.8107 76.4351 22.536C76.4351 23.2613 76.5845 23.8213 76.8831 24.216C77.1818 24.6 77.5818 24.792 78.0831 24.792C78.7871 24.792 79.2618 24.4507 79.5071 23.768H82.4191C82.1845 24.8133 81.6885 25.6347 80.9311 26.232C80.1738 26.8293 79.2405 27.128 78.1311 27.128C77.2565 27.128 76.4778 26.9413 75.7951 26.568C75.1231 26.1947 74.5951 25.6613 74.2111 24.968C73.8378 24.2747 73.6511 23.464 73.6511 22.536ZM89.3386 27L86.6186 23.256V27H83.8826V15.16H86.6186V21.704L89.3226 18.072H92.6986L88.9866 22.552L92.7306 27H89.3386ZM95.7893 15.88V22.968C95.7893 23.8107 96.0079 24.4453 96.4453 24.872C96.8933 25.2987 97.5119 25.512 98.3013 25.512C99.1013 25.512 99.7199 25.2987 100.157 24.872C100.605 24.4453 100.829 23.8107 100.829 22.968V15.88H102.653V22.936C102.653 23.8427 102.456 24.6107 102.061 25.24C101.667 25.8693 101.139 26.3387 100.477 26.648C99.8159 26.9573 99.0853 27.112 98.2853 27.112C97.4853 27.112 96.7546 26.9573 96.0933 26.648C95.4426 26.3387 94.9253 25.8693 94.5413 25.24C94.1573 24.6107 93.9653 23.8427 93.9653 22.936V15.88H95.7893ZM109.476 18.04C110.169 18.04 110.788 18.184 111.332 18.472C111.887 18.76 112.319 19.1867 112.628 19.752C112.937 20.3173 113.092 21 113.092 21.8V27H111.284V22.072C111.284 21.2827 111.087 20.68 110.692 20.264C110.297 19.8373 109.759 19.624 109.076 19.624C108.393 19.624 107.849 19.8373 107.444 20.264C107.049 20.68 106.852 21.2827 106.852 22.072V27H105.028V18.184H106.852V19.192C107.151 18.8293 107.529 18.5467 107.988 18.344C108.457 18.1413 108.953 18.04 109.476 18.04ZM114.811 22.552C114.811 21.6667 114.992 20.8827 115.355 20.2C115.728 19.5173 116.229 18.9893 116.859 18.616C117.499 18.232 118.208 18.04 118.987 18.04C119.563 18.04 120.128 18.168 120.683 18.424C121.248 18.6693 121.696 19 122.027 19.416V15.16H123.867V27H122.027V25.672C121.728 26.0987 121.312 26.4507 120.779 26.728C120.256 27.0053 119.653 27.144 118.971 27.144C118.203 27.144 117.499 26.952 116.859 26.568C116.229 26.1733 115.728 25.6293 115.355 24.936C114.992 24.232 114.811 23.4373 114.811 22.552ZM122.027 22.584C122.027 21.976 121.899 21.448 121.643 21C121.397 20.552 121.072 20.2107 120.667 19.976C120.261 19.7413 119.824 19.624 119.355 19.624C118.885 19.624 118.448 19.7413 118.043 19.976C117.637 20.2 117.307 20.536 117.051 20.984C116.805 21.4213 116.683 21.944 116.683 22.552C116.683 23.16 116.805 23.6933 117.051 24.152C117.307 24.6107 117.637 24.9627 118.043 25.208C118.459 25.4427 118.896 25.56 119.355 25.56C119.824 25.56 120.261 25.4427 120.667 25.208C121.072 24.9733 121.397 24.632 121.643 24.184C121.899 23.7253 122.027 23.192 122.027 22.584ZM134.343 22.376C134.343 22.7067 134.321 23.0053 134.279 23.272H127.543C127.596 23.976 127.857 24.5413 128.327 24.968C128.796 25.3947 129.372 25.608 130.055 25.608C131.036 25.608 131.729 25.1973 132.135 24.376H134.102C133.836 25.1867 133.351 25.8533 132.647 26.376C131.953 26.888 131.089 27.144 130.055 27.144C129.212 27.144 128.455 26.9573 127.783 26.584C127.121 26.2 126.599 25.6667 126.215 24.984C125.841 24.2907 125.655 23.4907 125.655 22.584C125.655 21.6773 125.836 20.8827 126.199 20.2C126.572 19.5067 127.089 18.9733 127.751 18.6C128.423 18.2267 129.191 18.04 130.055 18.04C130.887 18.04 131.628 18.2213 132.279 18.584C132.929 18.9467 133.436 19.4587 133.799 20.12C134.161 20.7707 134.343 21.5227 134.343 22.376ZM132.439 21.8C132.428 21.128 132.188 20.5893 131.719 20.184C131.249 19.7787 130.668 19.576 129.975 19.576C129.345 19.576 128.807 19.7787 128.359 20.184C127.911 20.5787 127.644 21.1173 127.559 21.8H132.439ZM137.962 19.464C138.228 19.016 138.58 18.6693 139.018 18.424C139.466 18.168 139.994 18.04 140.602 18.04V19.928H140.138C139.423 19.928 138.879 20.1093 138.506 20.472C138.143 20.8347 137.962 21.464 137.962 22.36V27H136.138V18.184H137.962V19.464ZM145.974 19.672H144.342V27H142.502V19.672H141.462V18.184H142.502V17.56C142.502 16.5467 142.769 15.8107 143.302 15.352C143.846 14.8827 144.694 14.648 145.846 14.648V16.168C145.291 16.168 144.902 16.2747 144.678 16.488C144.454 16.6907 144.342 17.048 144.342 17.56V18.184H145.974V19.672ZM149.415 15.16V27H147.591V15.16H149.415ZM155.633 27.144C154.801 27.144 154.049 26.9573 153.377 26.584C152.705 26.2 152.177 25.6667 151.793 24.984C151.409 24.2907 151.217 23.4907 151.217 22.584C151.217 21.688 151.415 20.8933 151.809 20.2C152.204 19.5067 152.743 18.9733 153.425 18.6C154.108 18.2267 154.871 18.04 155.713 18.04C156.556 18.04 157.319 18.2267 158.001 18.6C158.684 18.9733 159.223 19.5067 159.617 20.2C160.012 20.8933 160.209 21.688 160.209 22.584C160.209 23.48 160.007 24.2747 159.601 24.968C159.196 25.6613 158.641 26.2 157.937 26.584C157.244 26.9573 156.476 27.144 155.633 27.144ZM155.633 25.56C156.103 25.56 156.54 25.448 156.945 25.224C157.361 25 157.697 24.664 157.953 24.216C158.209 23.768 158.337 23.224 158.337 22.584C158.337 21.944 158.215 21.4053 157.969 20.968C157.724 20.52 157.399 20.184 156.993 19.96C156.588 19.736 156.151 19.624 155.681 19.624C155.212 19.624 154.775 19.736 154.369 19.96C153.975 20.184 153.66 20.52 153.425 20.968C153.191 21.4053 153.073 21.944 153.073 22.584C153.073 23.5333 153.313 24.2693 153.793 24.792C154.284 25.304 154.897 25.56 155.633 25.56ZM173.853 18.184L171.117 27H169.197L167.421 20.488L165.645 27H163.725L160.973 18.184H162.829L164.669 25.272L166.541 18.184H168.445L170.237 25.24L172.061 18.184H173.853Z" fill="white"/>
<path d="M4.08696 14.7143L3 31H28L25.8261 13M10.6087 22.8571H19.7391M18.2174 19L11.6957 14.7143M18.2174 11.7143L16.913 7" stroke="#E2E2E2" stroke-width="4" stroke-linecap="round"/>
</svg>
