<svg width="20" height="14" viewBox="0 0 20 14" fill="none" xmlns="http://www.w3.org/2000/svg">
<path d="M10.0905 0.80127C5.88613 0.80127 2.29564 3.42844 0.840942 7.13689C2.29564 10.8453 5.88613 13.4725 10.0905 13.4725C14.2948 13.4725 17.8853 10.8453 19.34 7.13689C17.8853 3.42844 14.2948 0.80127 10.0905 0.80127ZM10.0905 11.3606C7.76967 11.3606 5.88613 9.46839 5.88613 7.13689C5.88613 4.80538 7.76967 2.91314 10.0905 2.91314C12.4112 2.91314 14.2948 4.80538 14.2948 7.13689C14.2948 9.46839 12.4112 11.3606 10.0905 11.3606ZM10.0905 4.60264C8.69462 4.60264 7.56786 5.7346 7.56786 7.13689C7.56786 8.53917 8.69462 9.67113 10.0905 9.67113C11.4863 9.67113 12.613 8.53917 12.613 7.13689C12.613 5.7346 11.4863 4.60264 10.0905 4.60264Z" fill="white"/>
</svg>
