<svg width="20" height="20" viewBox="0 0 20 20" fill="none" xmlns="http://www.w3.org/2000/svg">
<path d="M18.0391 12.7188C18.1214 12.8619 18.1438 13.0317 18.1014 13.1913C18.0589 13.3508 17.9551 13.4871 17.8125 13.5703C17.7183 13.6274 17.6101 13.6572 17.5 13.6563C17.3893 13.6573 17.2804 13.6289 17.1843 13.5739C17.0882 13.519 17.0084 13.4396 16.9531 13.3438L15.5156 10.8594C14.6721 11.4268 13.7439 11.8566 12.7656 12.1328L13.2187 14.7031C13.2461 14.8666 13.2083 15.0343 13.1133 15.1702C13.0183 15.3061 12.8739 15.3992 12.7109 15.4297H12.6016C12.4545 15.4301 12.3119 15.3787 12.199 15.2844C12.0861 15.19 12.0101 15.0589 11.9844 14.9141L11.5391 12.3828C11.0295 12.4588 10.5152 12.498 10 12.5C9.48243 12.5003 8.9655 12.4637 8.45312 12.3906L8.00781 14.9219C7.98207 15.0667 7.90606 15.1978 7.79316 15.2922C7.68027 15.3865 7.53773 15.438 7.39062 15.4375H7.28125C7.11831 15.4071 6.97383 15.3139 6.87887 15.178C6.78391 15.0421 6.74605 14.8744 6.77343 14.711L7.23437 12.1328C6.25298 11.8584 5.32191 11.4285 4.47656 10.8594L3.03125 13.3594C2.97541 13.4531 2.8966 13.5309 2.80227 13.5856C2.70793 13.6403 2.6012 13.67 2.49218 13.6719C2.38266 13.6715 2.27516 13.6424 2.18046 13.5873C2.08575 13.5323 2.00716 13.4534 1.95257 13.3584C1.89797 13.2635 1.86929 13.1559 1.86939 13.0463C1.86948 12.9368 1.89836 12.8292 1.95312 12.7344L3.47656 10.0938C2.9442 9.63721 2.45514 9.13247 2.01562 8.58596C1.96368 8.52263 1.92486 8.44959 1.90143 8.3711C1.87801 8.29262 1.87043 8.21026 1.87916 8.12881C1.88789 8.04737 1.91273 7.96848 1.95226 7.89674C1.99178 7.825 2.04519 7.76185 2.10937 7.71096C2.17222 7.65858 2.24485 7.61921 2.32304 7.59516C2.40124 7.5711 2.48343 7.56283 2.56485 7.57083C2.64627 7.57882 2.72529 7.60293 2.79731 7.64174C2.86933 7.68055 2.93292 7.73329 2.98437 7.7969C3.47341 8.40659 4.03187 8.95718 4.64843 9.43752H4.65625C6.18183 10.6276 8.06522 11.2664 10 11.25C12.2891 11.25 14.0469 10.4453 15.3359 9.44533H15.3516C15.9681 8.96499 16.5266 8.4144 17.0156 7.80471C17.0665 7.74053 17.1297 7.68712 17.2014 7.64759C17.2731 7.60807 17.352 7.58322 17.4335 7.5745C17.5149 7.56577 17.5973 7.57334 17.6758 7.59677C17.7543 7.6202 17.8273 7.65902 17.8906 7.71096C17.9548 7.76185 18.0082 7.825 18.0477 7.89674C18.0873 7.96848 18.1121 8.04737 18.1208 8.12881C18.1296 8.21026 18.122 8.29262 18.0986 8.3711C18.0751 8.44959 18.0363 8.52263 17.9844 8.58596C17.5448 9.13247 17.0558 9.63721 16.5234 10.0938L18.0391 12.7188Z" fill="white"/>
</svg>
