<svg width="16" height="16" viewBox="0 0 16 16" fill="none" xmlns="http://www.w3.org/2000/svg">
<g clip-path="url(#clip0_115_448)">
<path d="M15.3544 6.88625L15.3491 6.88356L1.11177 0.0702667C0.992019 0.0124373 0.861712 -0.0102427 0.732504 0.00425552C0.603296 0.0187538 0.479218 0.0699781 0.371368 0.153346C0.257422 0.239491 0.163826 0.356968 0.0990009 0.495209C0.0341756 0.63345 0.000155046 0.788117 1.82021e-07 0.945294V5.30274C6.34988e-05 5.51761 0.0650925 5.72573 0.183879 5.89121C0.302665 6.0567 0.467767 6.1692 0.650728 6.20931L8.41579 7.8659C8.4463 7.87257 8.47384 7.89132 8.49365 7.91892C8.51346 7.94652 8.5243 7.98122 8.5243 8.01706C8.5243 8.05289 8.51346 8.0876 8.49365 8.11519C8.47384 8.14279 8.4463 8.16154 8.41579 8.16821L0.651061 9.82481C0.468152 9.86481 0.303059 9.97716 0.18422 10.1425C0.0653802 10.3078 0.000233362 10.5158 1.82021e-07 10.7306V15.0888C-8.83517e-05 15.2389 0.0321211 15.3867 0.0937382 15.5189C0.155355 15.651 0.244452 15.7635 0.353033 15.8461C0.483645 15.9463 0.636928 15.9998 0.793741 16C0.902758 15.9999 1.01066 15.9747 1.1111 15.9258L15.3481 9.15132L15.3544 9.14786C15.5461 9.05284 15.7094 8.89507 15.8241 8.69409C15.9388 8.49311 16 8.25772 16 8.01706C16 7.77639 15.9388 7.54101 15.8241 7.34002C15.7094 7.13904 15.5461 6.98128 15.3544 6.88625Z" fill="white"/>
</g>
<defs>
<clipPath id="clip0_115_448">
<rect width="16" height="16" fill="white"/>
</clipPath>
</defs>
</svg>
