<svg width="13" height="16" viewBox="0 0 13 16" fill="none" xmlns="http://www.w3.org/2000/svg">
<path d="M11.2477 13H4.26023L8.38523 8.8875C8.50239 8.7713 8.59539 8.63305 8.65885 8.48072C8.72231 8.3284 8.75498 8.16501 8.75498 8C8.75498 7.83499 8.72231 7.6716 8.65885 7.51928C8.59539 7.36695 8.50239 7.2287 8.38523 7.1125L4.26023 3H11.2477C11.5793 3 11.8972 2.8683 12.1316 2.63388C12.366 2.39946 12.4977 2.08152 12.4977 1.75C12.4977 1.41848 12.366 1.10054 12.1316 0.866117C11.8972 0.631696 11.5793 0.5 11.2477 0.5H1.24773C1.00095 0.501232 0.760055 0.575485 0.555405 0.713401C0.350755 0.851318 0.191508 1.04673 0.0977327 1.275C0.0020084 1.50264 -0.0241446 1.75353 0.022573 1.99602C0.0692907 2.2385 0.186786 2.46172 0.360233 2.6375L5.73523 8L0.360233 13.3625C0.186786 13.5383 0.0692907 13.7615 0.022573 14.004C-0.0241446 14.2465 0.0020084 14.4974 0.0977327 14.725C0.191508 14.9533 0.350755 15.1487 0.555405 15.2866C0.760055 15.4245 1.00095 15.4988 1.24773 15.5H11.2477C11.5793 15.5 11.8972 15.3683 12.1316 15.1339C12.366 14.8995 12.4977 14.5815 12.4977 14.25C12.4977 13.9185 12.366 13.6005 12.1316 13.3661C11.8972 13.1317 11.5793 13 11.2477 13Z" fill="#6B3DB7"/>
</svg>
